<?xml version="1.0" encoding="UTF-8" standalone="no"?> <!-- Created with Inkscape (http://www.inkscape.org/) -->  <svg    xmlns:dc="http://purl.org/dc/elements/1.1/"    xmlns:cc="http://creativecommons.org/ns#"    xmlns:rdf="http://www.w3.org/1999/02/22-rdf-syntax-ns#"    xmlns:svg="http://www.w3.org/2000/svg"    xmlns="http://www.w3.org/2000/svg"    xmlns:sodipodi="http://sodipodi.sourceforge.net/DTD/sodipodi-0.dtd"    xmlns:inkscape="http://www.inkscape.org/namespaces/inkscape"    width="439.57999"    height="382.01999"    viewBox="0 0 116.30554 101.07612"    version="1.1"    id="svg839"    inkscape:version="0.92.4 (5da689c313, 2019-01-14)"    sodipodi:docname="100-icon.svg">   <defs      id="defs833" />   <sodipodi:namedview      id="base"      pagecolor="#ffffff"      bordercolor="#666666"      borderopacity="1.0"      inkscape:pageopacity="0.0"      inkscape:pageshadow="2"      inkscape:zoom="1.979899"      inkscape:cx="111.38954"      inkscape:cy="108.68088"      inkscape:document-units="mm"      inkscape:current-layer="layer1"      showgrid="false"      units="px"      fit-margin-top="5"      fit-margin-left="5"      fit-margin-bottom="5"      fit-margin-right="5"      inkscape:window-width="2560"      inkscape:window-height="1377"      inkscape:window-x="2552"      inkscape:window-y="-8"      inkscape:window-maximized="1" />   <metadata      id="metadata836">     <rdf:RDF>       <cc:Work          rdf:about="">         <dc:format>image/svg+xml</dc:format>         <dc:type            rdf:resource="http://purl.org/dc/dcmitype/StillImage" />         <dc:title />       </cc:Work>     </rdf:RDF>   </metadata>   <g      inkscape:label="Layer 1"      inkscape:groupmode="layer"      id="layer1"      transform="translate(-49.948421,-93.003604)">     <polygon        style="fill:#4d4d4d"        points="148.61,0 363.39,0 470.79,186.01 363.39,372.02 148.61,372.02 41.21,186.01 "        id="polygon6"        transform="matrix(0.26458333,0,0,0.26458333,40.367859,94.326521)" />     <path        inkscape:connector-curvature="0"        id="path821"        style="font-style:normal;font-variant:normal;font-weight:bold;font-stretch:normal;font-size:51.84783936px;line-height:1.25;font-family:'Segoe UI';-inkscape-font-specification:'Segoe UI, Bold';font-variant-ligatures:normal;font-variant-caps:normal;font-variant-numeric:normal;font-feature-settings:normal;text-align:start;letter-spacing:0px;word-spacing:0px;writing-mode:lr-tb;text-anchor:start;fill:#e6e6e6;fill-opacity:1;stroke:none;stroke-width:0.97214699"        d="m 84.768309,124.8062 v 37.11374 h -7.974643 v -28.10113 q -0.658225,0.58228 -1.569613,1.11392 -0.886071,0.50633 -1.898724,0.93671 -1.012653,0.40506 -2.101255,0.70885 -1.088602,0.27848 -2.151888,0.40506 v -6.73414 q 3.113908,-0.91139 5.873388,-2.3291 2.75948,-1.41772 4.987316,-3.11391 z" />     <path        inkscape:connector-curvature="0"        id="path823"        style="font-style:normal;font-variant:normal;font-weight:bold;font-stretch:normal;font-size:51.84783936px;line-height:1.25;font-family:'Segoe UI';-inkscape-font-specification:'Segoe UI, Bold';font-variant-ligatures:normal;font-variant-caps:normal;font-variant-numeric:normal;font-feature-settings:normal;text-align:start;letter-spacing:0px;word-spacing:0px;writing-mode:lr-tb;text-anchor:start;fill:#e6e6e6;fill-opacity:1;stroke:none;stroke-width:0.97214699"        d="m 103.52466,162.55285 q -12.961946,0 -12.961946,-18.20244 0,-9.44299 3.493653,-14.37968 3.518972,-4.962 10.177153,-4.962 12.65817,0 12.65817,18.50624 0,9.21514 -3.46834,14.12651 -3.44302,4.91137 -9.89869,4.91137 z m 0.35443,-31.44288 q -5.189837,0 -5.189837,13.03791 0,12.27841 5.088577,12.27841 4.962,0 4.962,-12.65816 0,-12.65816 -4.86074,-12.65816 z" />     <path        inkscape:connector-curvature="0"        id="path825"        style="font-style:normal;font-variant:normal;font-weight:bold;font-stretch:normal;font-size:51.84783936px;line-height:1.25;font-family:'Segoe UI';-inkscape-font-specification:'Segoe UI, Bold';font-variant-ligatures:normal;font-variant-caps:normal;font-variant-numeric:normal;font-feature-settings:normal;text-align:start;letter-spacing:0px;word-spacing:0px;writing-mode:lr-tb;text-anchor:start;fill:#e6e6e6;fill-opacity:1;stroke:none;stroke-width:0.97214699"        d="m 134.45627,162.55285 q -12.96196,0 -12.96196,-18.20244 0,-9.44299 3.49365,-14.37968 3.51897,-4.962 10.17717,-4.962 12.65816,0 12.65816,18.50624 0,9.21514 -3.46833,14.12651 -3.44303,4.91137 -9.89869,4.91137 z m 0.35443,-31.44288 q -5.18985,0 -5.18985,13.03791 0,12.27841 5.08858,12.27841 4.962,0 4.962,-12.65816 0,-12.65816 -4.86073,-12.65816 z" />   </g> </svg> 