<?xml version="1.0" encoding="utf-8"?> <!-- Svg Vector Icons : http://www.onlinewebfonts.com/icon --> <!DOCTYPE svg PUBLIC "-//W3C//DTD SVG 1.1//EN" "http://www.w3.org/Graphics/SVG/1.1/DTD/svg11.dtd"> <svg version="1.1" xmlns="http://www.w3.org/2000/svg" xmlns:xlink="http://www.w3.org/1999/xlink" x="0px" y="0px" viewBox="0 0 1000 1000" enable-background="new 0 0 1000 1000" xml:space="preserve"> <metadata> Svg Vector Icons : http://www.onlinewebfonts.com/icon </metadata> <g><g transform="translate(0.000000,511.000000) scale(0.100000,-0.100000)"><path d="M2673,4989.9c-100.5-65.3-100.5-55.3,507.6-2168.7c326.7-1125.8,595.6-2050.6,600.6-2053.1c10-12.6,238.7,62.8,284,93c20.1,10.1,218.6,658.4,444.8,1437.4l409.6,1419.8l-173.4,600.6c-95.5,329.2-191,620.7-213.6,645.8c-40.2,42.7-100.5,45.2-937.3,45.2C3102.7,5010,2688,4999.9,2673,4989.9z"/><path d="M5469.9,4964.8C5434.7,4927.1,4261.2,939,4278.8,923.9c2.5-2.5,90.5,12.6,193.5,32.7c263.9,52.8,786.5,50.3,1068-2.5c125.6-22.6,326.7-77.9,447.3-118.1c123.1-42.7,226.2-72.9,231.2-67.8c5,5,273.9,929.8,600.6,2055.6c590.5,2038,593,2048.1,545.3,2110.9l-45.3,62.8l-904.7,7.5C5562.9,5010,5507.6,5007.5,5469.9,4964.8z"/><path d="M4462.2,798.2C3919.4,692.7,3444.5,438.9,3032.3,36.8c-371.9-361.8-630.8-801.6-764-1301.7c-60.3-221.1-67.8-291.5-67.8-698.6c0-387,7.5-482.5,52.8-655.9c304.1-1143.4,1173.6-1950.1,2296.9-2133.5c1439.9-233.7,2797,658.4,3183.9,2093.3c57.8,221.1,65.4,289,65.4,696.1c0,414.6-7.6,472.4-70.4,703.7c-133.2,487.5-356.8,879.5-713.7,1248.9c-407.1,422.2-924.8,703.6-1495.2,811.7C5273.9,848.5,4700.9,846,4462.2,798.2z M5072.9-26c22.6-27.6,505.1-1329.4,505.1-1364.5c0-2.5,334.2-7.5,741.3-7.5c708.6,0,743.8-2.5,791.6-50.3c62.8-62.8,65.3-128.1,7.5-196c-25.1-27.7-286.4-218.6-580.5-422.2c-296.5-203.6-542.8-382-547.8-399.6c-7.5-15.1,90.5-309.1,218.6-655.9c125.6-344.3,228.7-653.4,228.7-686.1c2.5-67.8-85.4-153.3-153.3-153.3c-22.6,0-311.6,191-645.8,424.7l-605.6,422.2l-588-412.1c-321.7-223.7-608.1-409.6-635.8-409.6c-70.4,0-140.7,72.9-140.7,145.7c0,35.2,90.5,349.3,203.5,701.1c113.1,351.8,198.5,643.3,196,645.8c-5,5-268.9,186-588,404.6c-316.6,216.1-593.1,414.6-608.1,434.7c-45.2,55.3-40.2,130.7,10.1,186c37.7,42.7,95.5,45.2,789.1,45.2h748.9l103,334.2C4788.9-191.9,4831.6-61.2,4866.8-26C4912,19.2,5035.2,19.2,5072.9-26z"/><path d="M4954.8-697c-12.6-32.7-77.9-236.2-143.2-449.8c-65.3-213.6-135.7-419.7-155.8-457.4l-32.7-70.4l-557.9-5l-557.9-7.5l434.7-299.1c241.2-165.8,442.3-321.7,452.3-351.8c22.6-57.8,20.1-70.4-170.9-660.9c-67.9-211.1-110.6-377-93-366.9c15.1,7.5,211.1,143.2,434.8,301.6c243.8,170.9,429.7,283.9,464.9,283.9c37.7,0,233.7-118.1,495.1-301.5c241.3-168.4,437.2-301.6,442.3-296.5c2.5,5-72.9,221.1-168.4,482.5c-110.6,306.6-168.3,497.6-160.8,535.3c10,37.7,155.8,153.3,442.3,351.8l424.7,296.5l-550.4,12.6c-444.8,10.1-557.9,20.1-588,50.3c-20.1,20.1-110.6,253.8-203.5,515.2c-93,263.9-173.4,482.5-178.4,487.5C4979.9-641.7,4967.3-664.3,4954.8-697z"/></g></g> </svg>