<svg id="Capa_1" enable-background="new 0 0 512 512" height="512" viewBox="0 0 512 512" width="512" xmlns="http://www.w3.org/2000/svg"><g><path d="m380.971 379.806c-.055-42.913 34.805-78.16 77.706-78.573.257-.003.517-.004.772-.004 16.754 0 32.695 5.278 45.848 14.768 3.083-12.847 5.196-25.989 6.261-39.336l.03-.43c.001-.018.002-.034.003-.052.257-4.044-1.188-7.845-4.067-10.702-3.031-3.007-7.279-4.551-11.639-4.24-1.831.131-3.694.197-5.536.197-22.113 0-42.815-9.416-57.286-25.641-6.394 1.445-12.948 2.079-19.585 1.896-40.975-1.142-74.612-34.083-76.58-74.995-.62-12.902 1.954-25.741 7.36-37.314-14.493-12.661-23.055-31.056-23.055-50.815 0-18.046 7.027-35.011 19.788-47.771.385-.386.783-.772 1.193-1.16 2.429-2.298 2.277-5.056 1.972-6.494-.256-1.201-1.221-4.125-4.648-5.331l-.167-.058c-26.653-9.129-54.556-13.751-82.963-13.751-.159 0-.313 0-.472 0-33.566.061-66.092 6.491-96.204 18.684 10.393 15.432 15.438 33.946 14.134 53.113-2.911 42.802-37.438 76.68-80.312 78.802-1.448.072-2.896.107-4.334.107-20.902 0-40.564-7.521-55.846-20.974-21.616 38.201-33.074 81.634-32.964 126.901.165 68.247 26.866 132.383 75.187 180.594 48.327 48.218 112.541 74.773 180.812 74.773 61.801 0 120.893-22.083 167.408-62.34-25.591-13.006-42.777-39.518-42.816-69.854zm-210.821 60.327c-35.516 0-64.409-28.894-64.409-64.409s28.894-64.408 64.409-64.408 64.409 28.894 64.409 64.408c.001 35.515-28.893 64.409-64.409 64.409zm72.964-178.224c-35.515 0-64.408-28.894-64.408-64.408 0-35.516 28.894-64.409 64.408-64.409 35.516 0 64.409 28.894 64.409 64.409s-28.893 64.408-64.409 64.408z"/><path d="m50.134 104.327c10.875 11.116 25.944 17.084 41.907 16.309 27.688-1.371 49.984-23.242 51.863-50.875.941-13.83-3.219-27.131-11.588-37.726-32.198 17.88-60.305 42.605-82.182 72.292z"/><path d="m170.15 341.315c-18.974 0-34.409 15.436-34.409 34.408 0 18.974 15.436 34.409 34.409 34.409s34.409-15.436 34.409-34.409c.001-18.972-15.435-34.408-34.409-34.408z"/><path d="m243.114 163.092c-18.973 0-34.408 15.436-34.408 34.409s15.436 34.408 34.408 34.408c18.974 0 34.409-15.436 34.409-34.408 0-18.974-15.435-34.409-34.409-34.409z"/><path d="m495.573 347.39c-9.141-10.241-22.185-16.161-36.13-16.161-.159 0-.317.001-.478.002-26.498.255-48.028 22.028-47.995 48.536.028 22.404 15.187 41.44 36.256 46.864 20.963-23.402 37.191-49.998 48.347-79.241z"/></g></svg>