<?xml version="1.0" encoding="UTF-8" standalone="no"?> <!-- Created with Inkscape (http://www.inkscape.org/) -->  <svg    xmlns:dc="http://purl.org/dc/elements/1.1/"    xmlns:cc="http://creativecommons.org/ns#"    xmlns:rdf="http://www.w3.org/1999/02/22-rdf-syntax-ns#"    xmlns:svg="http://www.w3.org/2000/svg"    xmlns="http://www.w3.org/2000/svg"    xmlns:sodipodi="http://sodipodi.sourceforge.net/DTD/sodipodi-0.dtd"    xmlns:inkscape="http://www.inkscape.org/namespaces/inkscape"    width="469"    height="474"    viewBox="0 0 124.08958 125.4125"    version="1.1"    id="svg8"    inkscape:version="0.92.4 (5da689c313, 2019-01-14)"    sodipodi:docname="covid-.svg">   <defs      id="defs2" />   <sodipodi:namedview      id="base"      pagecolor="#ffffff"      bordercolor="#666666"      borderopacity="1.0"      inkscape:pageopacity="0.0"      inkscape:pageshadow="2"      inkscape:zoom="0.35"      inkscape:cx="81.285716"      inkscape:cy="-162.99997"      inkscape:document-units="mm"      inkscape:current-layer="layer1"      showgrid="false"      fit-margin-top="5"      fit-margin-left="5"      fit-margin-bottom="5"      fit-margin-right="5"      units="px"      inkscape:window-width="2560"      inkscape:window-height="1377"      inkscape:window-x="2552"      inkscape:window-y="-8"      inkscape:window-maximized="1" />   <metadata      id="metadata5">     <rdf:RDF>       <cc:Work          rdf:about="">         <dc:format>image/svg+xml</dc:format>         <dc:type            rdf:resource="http://purl.org/dc/dcmitype/StillImage" />         <dc:title></dc:title>       </cc:Work>     </rdf:RDF>   </metadata>   <g      inkscape:label="Layer 1"      inkscape:groupmode="layer"      id="layer1"      transform="translate(-60.513987,19.706251)">     <g        id="g14"        transform="matrix(2.1166667,0,0,2.1166667,55.486904,-24.733334)">       <circle          cx="36"          cy="29"          r="3"          id="circle2" />       <circle          cx="26"          cy="38"          r="4"          id="circle4" />       <circle          cx="39.5"          cy="40.5"          r="1.5"          id="circle6" />       <circle          cx="22"          cy="23"          r="1"          id="circle8" />       <circle          cx="42"          cy="22"          r="1"          id="circle10" />       <path          d="m 59.45,26 c -1.234,0.016 -2.408,0.611 -3.15,1.6 -1.127,1.503 -2.921,2.4 -4.8,2.4 -1.833,0 -3.609,-0.538 -5.135,-1.555 l -0.92,-0.613 1.109,-1.664 0.92,0.613 c 0.933,0.622 1.986,1.007 3.086,1.15 -0.579,-2.644 -1.727,-5.158 -3.36,-7.331 -0.299,-0.398 -0.259,-0.956 0.093,-1.308 l 1.938,-1.938 C 50.105,16.48 51.266,16 52.5,16 c 0.7,0 1.358,-0.272 1.854,-0.768 L 54.996,14.59 C 54.937,13.123 54.338,11.751 53.294,10.707 52.25,9.663 50.878,9.063 49.411,9.005 L 48.769,9.647 C 48.272,10.142 48,10.8 48,11.5 c 0,1.234 -0.48,2.395 -1.354,3.268 l -1.938,1.938 c -0.352,0.352 -0.908,0.392 -1.308,0.093 -2.173,-1.633 -4.687,-2.78 -7.331,-3.36 0.143,1.1 0.528,2.153 1.15,3.086 l 0.613,0.92 -1.664,1.109 -0.613,-0.92 C 34.538,16.109 34,14.333 34,12.5 34,10.622 34.897,8.828 36.4,7.7 37.389,6.958 37.984,5.784 38,4.55 36.306,3.534 34.379,3 32.395,3 h -0.79 C 29.621,3 27.694,3.534 26,4.55 c 0.016,1.234 0.611,2.408 1.6,3.15 1.503,1.127 2.4,2.921 2.4,4.8 0,1.833 -0.538,3.609 -1.555,5.135 l -0.613,0.92 -1.664,-1.109 0.613,-0.92 c 0.622,-0.933 1.007,-1.986 1.15,-3.086 -2.644,0.579 -5.158,1.727 -7.331,3.36 -0.398,0.299 -0.957,0.259 -1.308,-0.093 L 17.354,14.769 C 16.48,13.895 16,12.734 16,11.5 16,10.8 15.728,10.142 15.232,9.646 L 14.59,9.005 c -1.467,0.059 -2.839,0.658 -3.883,1.702 -1.044,1.044 -1.644,2.416 -1.702,3.883 l 0.642,0.642 C 10.142,15.728 10.8,16 11.5,16 c 1.234,0 2.395,0.48 3.268,1.354 l 1.938,1.938 c 0.352,0.352 0.392,0.91 0.093,1.308 -1.633,2.173 -2.78,4.687 -3.36,7.331 1.1,-0.143 2.153,-0.528 3.086,-1.15 l 0.92,-0.613 1.109,1.664 -0.92,0.613 C 16.109,29.462 14.333,30 12.5,30 10.622,30 8.828,29.103 7.7,27.6 6.958,26.611 5.784,26.016 4.55,26 3.534,27.694 3,29.621 3,31.605 v 0.79 C 3,34.379 3.534,36.306 4.55,38 5.784,37.984 6.958,37.389 7.7,36.4 8.827,34.897 10.621,34 12.5,34 c 1.833,0 3.609,0.538 5.135,1.555 l 0.92,0.613 -1.109,1.664 -0.92,-0.613 c -0.933,-0.622 -1.986,-1.007 -3.086,-1.15 0.579,2.644 1.727,5.158 3.36,7.331 0.299,0.398 0.259,0.956 -0.093,1.308 l -1.938,1.938 C 13.895,47.52 12.734,48 11.5,48 10.8,48 10.142,48.272 9.646,48.768 L 9.005,49.41 c 0.059,1.467 0.658,2.839 1.702,3.883 1.044,1.044 2.416,1.644 3.883,1.702 l 0.642,-0.642 C 15.728,53.858 16,53.2 16,52.5 c 0,-1.234 0.48,-2.395 1.354,-3.268 l 1.938,-1.938 c 0.351,-0.352 0.908,-0.392 1.308,-0.093 2.173,1.633 4.687,2.78 7.331,3.36 -0.143,-1.1 -0.528,-2.153 -1.15,-3.086 l -0.613,-0.92 1.664,-1.109 0.613,0.92 C 29.462,47.891 30,49.667 30,51.5 c 0,1.878 -0.897,3.672 -2.4,4.8 -0.989,0.742 -1.584,1.916 -1.6,3.15 1.693,1.016 3.62,1.55 5.605,1.55 h 0.79 c 1.984,0 3.911,-0.534 5.604,-1.55 -0.016,-1.234 -0.611,-2.408 -1.6,-3.15 -1.503,-1.127 -2.4,-2.921 -2.4,-4.8 0,-1.833 0.538,-3.609 1.555,-5.135 l 0.613,-0.92 1.664,1.109 -0.613,0.92 c -0.622,0.933 -1.007,1.986 -1.15,3.086 2.644,-0.579 5.158,-1.727 7.331,-3.36 0.398,-0.299 0.956,-0.259 1.308,0.093 l 1.938,1.938 C 47.52,50.105 48,51.266 48,52.5 c 0,0.7 0.272,1.358 0.768,1.854 l 0.642,0.642 c 1.467,-0.059 2.839,-0.658 3.883,-1.702 1.044,-1.044 1.644,-2.416 1.702,-3.883 L 54.353,48.769 C 53.858,48.272 53.2,48 52.5,48 51.266,48 50.105,47.52 49.232,46.646 l -1.938,-1.938 c -0.352,-0.352 -0.392,-0.91 -0.093,-1.308 1.633,-2.173 2.78,-4.687 3.36,-7.331 -1.1,0.143 -2.153,0.528 -3.086,1.15 l -0.92,0.613 -1.109,-1.664 0.92,-0.613 C 47.891,34.538 49.667,34 51.5,34 c 1.878,0 3.672,0.897 4.8,2.4 0.742,0.989 1.916,1.584 3.15,1.6 C 60.466,36.307 61,34.38 61,32.395 v -0.79 C 61,29.621 60.466,27.694 59.45,26 Z M 19,23 c 0,-1.654 1.346,-3 3,-3 1.654,0 3,1.346 3,3 0,1.654 -1.346,3 -3,3 -1.654,0 -3,-1.346 -3,-3 z m 7,21 c -3.309,0 -6,-2.691 -6,-6 0,-3.309 2.691,-6 6,-6 3.309,0 6,2.691 6,6 0,3.309 -2.691,6 -6,6 z m 5,-15 c 0,-2.757 2.243,-5 5,-5 2.757,0 5,2.243 5,5 0,2.757 -2.243,5 -5,5 -2.757,0 -5,-2.243 -5,-5 z m 8.5,15 C 37.57,44 36,42.43 36,40.5 36,38.57 37.57,37 39.5,37 41.43,37 43,38.57 43,40.5 43,42.43 41.43,44 39.5,44 Z M 42,25 c -1.654,0 -3,-1.346 -3,-3 0,-1.654 1.346,-3 3,-3 1.654,0 3,1.346 3,3 0,1.654 -1.346,3 -3,3 z"          id="path12"          inkscape:connector-curvature="0" />     </g>   </g> </svg>