<?xml version="1.0" encoding="utf-8"?> <!-- Svg Vector Icons : http://www.onlinewebfonts.com/icon --> <!DOCTYPE svg PUBLIC "-//W3C//DTD SVG 1.1//EN" "http://www.w3.org/Graphics/SVG/1.1/DTD/svg11.dtd"> <svg version="1.1" xmlns="http://www.w3.org/2000/svg" xmlns:xlink="http://www.w3.org/1999/xlink" x="0px" y="0px" viewBox="0 0 1000 1000" enable-background="new 0 0 1000 1000" xml:space="preserve"> <metadata> Svg Vector Icons : http://www.onlinewebfonts.com/icon </metadata> <g><g transform="translate(0.000000,511.000000) scale(0.100000,-0.100000)"><path d="M2209.1,4690.4v-319.6h-878.2H452.7l11.8-1271.2c9.5-1209.6,11.8-1285.4,61.6-1510.2c120.7-544.4,310.1-909,641.5-1245.1c314.8-317.2,603.6-468.7,1036.8-542.1c104.2-16.6,170.4-40.2,170.4-56.8c0-59.2,232-501.8,348-665.2c331.4-463.9,842.7-842.7,1391.9-1027.4l213-71l7.1-437.9l4.7-440.3l-63.9-14.2c-958.7-217.8-1623.9-672.3-1922.1-1313.8c-78.1-165.7-144.4-395.3-144.4-499.5v-66.3h2805.1h2805.1l-14.2,78.1c-37.9,229.6-71,331.4-165.7,525.5c-310.1,632-956.3,1065.2-1907.9,1275.9l-66.3,14.2v435.6v435.5l196.5,63.9c755.1,241.5,1380,802.5,1709.1,1533.9c87.6,194.1,97,205.9,177.5,220.1c345.6,54.5,627.3,165.7,890,352.7c452.1,321.9,785.9,949.2,883,1657c16.5,108.9,26,658.1,26,1375.3v1193h-864h-864v319.6V5010H5014.2H2209.1V4690.4z M2209.1,2096V675.7l-52.1,14.2c-198.8,61.6-464,288.8-594.1,508.9c-92.3,158.6-198.8,506.6-227.2,733.8c-14.2,108.9-26,511.3-26,892.4v693.6h449.8h449.8V2096z M8690.4,2673.6c-9.5-785.9-14.2-861.6-61.5-1034.4c-118.4-426.1-362.2-762.2-651-897.2c-73.4-35.5-137.3-63.9-144.4-63.9c-7.1,0-14.2,639.1-14.2,1420.3v1420.3h440.3h437.9L8690.4,2673.6z"/></g></g> </svg>