<?xml version="1.0" encoding="UTF-8" standalone="no"?>
<!-- Created with Inkscape (http://www.inkscape.org/) -->

<svg
   xmlns:dc="http://purl.org/dc/elements/1.1/"
   xmlns:cc="http://creativecommons.org/ns#"
   xmlns:rdf="http://www.w3.org/1999/02/22-rdf-syntax-ns#"
   xmlns:svg="http://www.w3.org/2000/svg"
   xmlns="http://www.w3.org/2000/svg"
   xmlns:sodipodi="http://sodipodi.sourceforge.net/DTD/sodipodi-0.dtd"
   xmlns:inkscape="http://www.inkscape.org/namespaces/inkscape"
   width="27.49715mm"
   height="13.813232mm"
   viewBox="0 0 27.49715 13.813232"
   version="1.1"
   id="svg8"
   inkscape:version="0.92.4 (5da689c313, 2019-01-14)"
   sodipodi:docname="lenny-neutral-right.svg">
  <defs
     id="defs2" />
  <sodipodi:namedview
     id="base"
     pagecolor="#ffffff"
     bordercolor="#666666"
     borderopacity="1.0"
     inkscape:pageopacity="0.0"
     inkscape:pageshadow="2"
     inkscape:zoom="11.2"
     inkscape:cx="90.154085"
     inkscape:cy="3.4188991"
     inkscape:document-units="mm"
     inkscape:current-layer="text4524"
     showgrid="false"
     fit-margin-top="1"
     fit-margin-left="1"
     fit-margin-right="1"
     fit-margin-bottom="1"
     inkscape:window-width="2560"
     inkscape:window-height="1377"
     inkscape:window-x="2552"
     inkscape:window-y="-8"
     inkscape:window-maximized="1" />
  <metadata
     id="metadata5">
    <rdf:RDF>
      <cc:Work
         rdf:about="">
        <dc:format>image/svg+xml</dc:format>
        <dc:type
           rdf:resource="http://purl.org/dc/dcmitype/StillImage" />
        <dc:title />
      </cc:Work>
    </rdf:RDF>
  </metadata>
  <g
     inkscape:label="Layer 1"
     inkscape:groupmode="layer"
     id="layer1"
     transform="translate(-12.686039,-15.26392)">
    <g
       aria-label="( ͡° ͜ʖ ͡°)"
       style="font-style:italic;font-variant:normal;font-weight:bold;font-stretch:normal;font-size:10.58333302px;line-height:1.25;font-family:'Segoe UI';-inkscape-font-specification:'Segoe UI, Bold Italic';font-variant-ligatures:normal;font-variant-caps:normal;font-variant-numeric:normal;font-feature-settings:normal;text-align:start;letter-spacing:0px;word-spacing:0px;writing-mode:lr-tb;text-anchor:start;stroke:none;stroke-width:0.26458332"
       id="text4524">
      <path
         d="m 36.826744,27.539717 h 0.754476 q 1.601969,-1.829345 1.601969,-4.511352 0,-2.692342 -1.601969,-4.5837 h -0.764811 q 1.62264,1.963705 1.62264,4.573364 0,2.58899 -1.612305,4.521688 z"
         style="font-style:normal;font-variant:normal;font-weight:normal;font-stretch:normal;font-size:10.58333302px;font-family:'Segoe UI';-inkscape-font-specification:'Segoe UI, Normal';font-variant-ligatures:normal;font-variant-caps:normal;font-variant-numeric:normal;font-feature-settings:normal;text-align:start;writing-mode:lr-tb;text-anchor:start;stroke-width:0.26458332"
         id="path4530"
         inkscape:connector-curvature="0" />
      <path
         d="m 29.705732,18.23796 h 0.837158 q 0.961182,-1.333252 3.271118,-1.333252 2.299601,0 3.260783,1.333252 h 0.837158 q -1.240234,-1.97404 -4.103109,-1.97404 -2.862874,0 -4.103108,1.97404 z"
         style="font-style:normal;font-variant:normal;font-weight:normal;font-stretch:normal;font-size:10.58333302px;font-family:'Segoe UI';-inkscape-font-specification:'Segoe UI, Normal';font-variant-ligatures:normal;font-variant-caps:normal;font-variant-numeric:normal;font-feature-settings:normal;text-align:start;writing-mode:lr-tb;text-anchor:start;stroke-width:0.26458332"
         id="path4532"
         inkscape:connector-curvature="0" />
      <path
         d="m 31.819298,21.21969 q 0.594279,0 1.012858,-0.418579 0.418579,-0.423747 0.418579,-1.023194 0,-0.594279 -0.413411,-1.002522 -0.413412,-0.413412 -1.007691,-0.413412 -0.599446,0 -1.018026,0.413412 -0.423746,0.413411 -0.423746,1.002522 0,0.599447 0.418579,1.023194 0.418579,0.418579 1.012858,0.418579 z m 0,-2.253093 q 0.335897,0 0.573608,0.237712 0.237712,0.237711 0.237712,0.573608 0,0.346232 -0.232544,0.594279 -0.232544,0.242879 -0.568441,0.242879 -0.335897,0 -0.578776,-0.248046 -0.242879,-0.248047 -0.242879,-0.589112 0,-0.341064 0.237711,-0.573608 0.237712,-0.237712 0.573609,-0.237712 z"
         style="font-style:normal;font-variant:normal;font-weight:normal;font-stretch:normal;font-size:10.58333302px;font-family:'Segoe UI';-inkscape-font-specification:'Segoe UI, Normal';font-variant-ligatures:normal;font-variant-caps:normal;font-variant-numeric:normal;font-feature-settings:normal;text-align:start;writing-mode:lr-tb;text-anchor:start;stroke-width:0.26458332"
         id="path4534"
         inkscape:connector-curvature="0" />
      <path
         d="m 26.92554,25.653527 v -0.800984 q -0.692464,0.403076 -1.457275,0.403076 -0.630453,0 -1.002523,-0.304891 -0.377238,-0.304891 -0.377238,-0.780314 0,-0.356567 0.155029,-0.640788 0.15503,-0.28422 0.692465,-0.837158 0.573608,-0.594279 0.764811,-1.00769 0.191203,-0.413412 0.191203,-1.111044 v -2.552815 h -0.847494 v 2.552815 q 0,0.485759 -0.160197,0.837158 -0.160197,0.3514 -0.614949,0.806153 -0.630453,0.614949 -0.831991,1.028361 -0.206706,0.413411 -0.206706,0.904337 0,0.780314 0.620117,1.302246 0.61495,0.516765 1.617473,0.516765 0.759643,0 1.457275,-0.315227 z"
         style="font-style:normal;font-variant:normal;font-weight:normal;font-stretch:normal;font-size:10.58333302px;font-family:'Segoe UI';-inkscape-font-specification:'Segoe UI, Normal';font-variant-ligatures:normal;font-variant-caps:normal;font-variant-numeric:normal;font-feature-settings:normal;text-align:start;writing-mode:lr-tb;text-anchor:start;stroke-width:0.26458332"
         id="path4538"
         inkscape:connector-curvature="0" />
      <path
         d="m 16.063154,18.23796 h 0.837158 q 0.961182,-1.333252 3.271118,-1.333252 2.299602,0 3.260783,1.333252 h 0.837158 q -1.240234,-1.97404 -4.103108,-1.97404 -2.862874,0 -4.103109,1.97404 z"
         style="font-style:normal;font-variant:normal;font-weight:normal;font-stretch:normal;font-size:10.58333302px;font-family:'Segoe UI';-inkscape-font-specification:'Segoe UI, Normal';font-variant-ligatures:normal;font-variant-caps:normal;font-variant-numeric:normal;font-feature-settings:normal;text-align:start;writing-mode:lr-tb;text-anchor:start;stroke-width:0.26458332"
         id="path4540"
         inkscape:connector-curvature="0" />
      <path
         d="m 18.17672,21.21969 q 0.594279,0 1.012858,-0.418579 0.418579,-0.423747 0.418579,-1.023194 0,-0.594279 -0.413411,-1.002522 -0.413412,-0.413412 -1.007691,-0.413412 -0.599446,0 -1.018025,0.413412 -0.423747,0.413411 -0.423747,1.002522 0,0.599447 0.418579,1.023194 0.418579,0.418579 1.012858,0.418579 z m 0,-2.253093 q 0.335897,0 0.573609,0.237712 0.237711,0.237711 0.237711,0.573608 0,0.346232 -0.232544,0.594279 -0.232544,0.242879 -0.568441,0.242879 -0.335896,0 -0.578776,-0.248046 -0.242879,-0.248047 -0.242879,-0.589112 0,-0.341064 0.237712,-0.573608 0.237711,-0.237712 0.573608,-0.237712 z"
         style="font-style:normal;font-variant:normal;font-weight:normal;font-stretch:normal;font-size:10.58333302px;font-family:'Segoe UI';-inkscape-font-specification:'Segoe UI, Normal';font-variant-ligatures:normal;font-variant-caps:normal;font-variant-numeric:normal;font-feature-settings:normal;text-align:start;writing-mode:lr-tb;text-anchor:start;stroke-width:0.26458332"
         id="path4542"
         inkscape:connector-curvature="0" />
      <path
         d="m 15.298344,27.539717 h 0.754475 q -1.612304,-1.932698 -1.612304,-4.521688 0,-2.609659 1.62264,-4.573364 h -0.764811 q -1.612305,1.891358 -1.612305,4.5837 0,2.682007 1.612305,4.511352 z"
         style="font-style:normal;font-variant:normal;font-weight:normal;font-stretch:normal;font-size:10.58333302px;font-family:'Segoe UI';-inkscape-font-specification:'Segoe UI, Normal';font-variant-ligatures:normal;font-variant-caps:normal;font-variant-numeric:normal;font-feature-settings:normal;text-align:start;writing-mode:lr-tb;text-anchor:start;stroke-width:0.26458332"
         id="path4544"
         inkscape:connector-curvature="0" />
      <path
         style="opacity:1;stroke:none;stroke-width:0.28918961;stroke-linecap:round;stroke-linejoin:round;stroke-miterlimit:10;stroke-dasharray:none;stroke-dashoffset:0;stroke-opacity:1"
         d="m 26.103576,27.199081 a 0.43703493,0.43703493 0 0 0 0.437035,0.437035 0.43703493,0.43703493 0 0 0 0.437035,-0.437035 0.43703493,0.43703493 0 0 0 -0.437035,-0.437035 0.43703493,0.43703493 0 0 0 -0.437035,0.437035 z"
         id="path829"
         inkscape:connector-curvature="0" />
    </g>
  </g>
</svg>
