<?xml version="1.0" encoding="UTF-8" standalone="no"?>
<!-- Created with Inkscape (http://www.inkscape.org/) -->

<svg
   xmlns:dc="http://purl.org/dc/elements/1.1/"
   xmlns:cc="http://creativecommons.org/ns#"
   xmlns:rdf="http://www.w3.org/1999/02/22-rdf-syntax-ns#"
   xmlns:svg="http://www.w3.org/2000/svg"
   xmlns="http://www.w3.org/2000/svg"
   xmlns:sodipodi="http://sodipodi.sourceforge.net/DTD/sodipodi-0.dtd"
   xmlns:inkscape="http://www.inkscape.org/namespaces/inkscape"
   width="27.49715mm"
   height="13.565185mm"
   viewBox="0 0 27.49715 13.565185"
   version="1.1"
   id="svg4553"
   inkscape:version="0.92.4 (5da689c313, 2019-01-14)"
   sodipodi:docname="lenny-sad.svg">
  <defs
     id="defs4547" />
  <sodipodi:namedview
     id="base"
     pagecolor="#ffffff"
     bordercolor="#666666"
     borderopacity="1.0"
     inkscape:pageopacity="0.0"
     inkscape:pageshadow="2"
     inkscape:zoom="1.979899"
     inkscape:cx="-50.545734"
     inkscape:cy="3.6867585"
     inkscape:document-units="mm"
     inkscape:current-layer="layer1"
     showgrid="false"
     fit-margin-top="1"
     fit-margin-left="1"
     fit-margin-bottom="1"
     fit-margin-right="1"
     inkscape:window-width="1920"
     inkscape:window-height="1017"
     inkscape:window-x="-8"
     inkscape:window-y="-8"
     inkscape:window-maximized="1" />
  <metadata
     id="metadata4550">
    <rdf:RDF>
      <cc:Work
         rdf:about="">
        <dc:format>image/svg+xml</dc:format>
        <dc:type
           rdf:resource="http://purl.org/dc/dcmitype/StillImage" />
        <dc:title />
      </cc:Work>
    </rdf:RDF>
  </metadata>
  <g
     inkscape:label="Layer 1"
     inkscape:groupmode="layer"
     id="layer1"
     transform="translate(-78.342519,-47.5279)">
    <g
       aria-label="( ͡° ʖ̯ ͡°)"
       style="font-style:italic;font-variant:normal;font-weight:bold;font-stretch:normal;font-size:10.58333302px;line-height:1.25;font-family:'Segoe UI';-inkscape-font-specification:'Segoe UI, Bold Italic';font-variant-ligatures:normal;font-variant-caps:normal;font-variant-numeric:normal;font-feature-settings:normal;text-align:start;letter-spacing:0px;word-spacing:0px;writing-mode:lr-tb;text-anchor:start;stroke:none;stroke-width:0.26458332"
       id="text5100"
       transform="matrix(-1,0,0,1,184.18219,0)">
      <path
         d="m 81.698964,59.803697 h -0.754476 q -1.601969,-1.829346 -1.601969,-4.511353 0,-2.692342 1.601969,-4.583699 H 81.7093 q -1.62264,1.963704 -1.62264,4.573364 0,2.588989 1.612304,4.521688 z"
         style="font-style:normal;font-variant:normal;font-weight:normal;font-stretch:normal;font-size:10.58333302px;font-family:'Segoe UI';-inkscape-font-specification:'Segoe UI, Normal';font-variant-ligatures:normal;font-variant-caps:normal;font-variant-numeric:normal;font-feature-settings:normal;text-align:start;writing-mode:lr-tb;text-anchor:start;stroke-width:0.26458332"
         id="path5102"
         inkscape:connector-curvature="0" />
      <path
         d="m 88.819977,50.501939 h -0.837159 q -0.961181,-1.333252 -3.271118,-1.333252 -2.299601,0 -3.260782,1.333252 h -0.837159 q 1.240235,-1.974039 4.103109,-1.974039 2.862874,0 4.103109,1.974039 z"
         style="font-style:normal;font-variant:normal;font-weight:normal;font-stretch:normal;font-size:10.58333302px;font-family:'Segoe UI';-inkscape-font-specification:'Segoe UI, Normal';font-variant-ligatures:normal;font-variant-caps:normal;font-variant-numeric:normal;font-feature-settings:normal;text-align:start;writing-mode:lr-tb;text-anchor:start;stroke-width:0.26458332"
         id="path5104"
         inkscape:connector-curvature="0" />
      <path
         d="m 86.706411,53.483669 q -0.594279,0 -1.012859,-0.418579 -0.418579,-0.423746 -0.418579,-1.023193 0,-0.594279 0.413412,-1.002523 0.413411,-0.413411 1.00769,-0.413411 0.599447,0 1.018026,0.413411 0.423747,0.413412 0.423747,1.002523 0,0.599447 -0.418579,1.023193 -0.41858,0.418579 -1.012858,0.418579 z m 0,-2.253092 q -0.335897,0 -0.573609,0.237712 -0.237711,0.237711 -0.237711,0.573608 0,0.346232 0.232543,0.594279 0.232544,0.242879 0.568441,0.242879 0.335897,0 0.578776,-0.248047 0.242879,-0.248047 0.242879,-0.589111 0,-0.341064 -0.237711,-0.573608 -0.237712,-0.237712 -0.573608,-0.237712 z"
         style="font-style:normal;font-variant:normal;font-weight:normal;font-stretch:normal;font-size:10.58333302px;font-family:'Segoe UI';-inkscape-font-specification:'Segoe UI, Normal';font-variant-ligatures:normal;font-variant-caps:normal;font-variant-numeric:normal;font-feature-settings:normal;text-align:start;writing-mode:lr-tb;text-anchor:start;stroke-width:0.26458332"
         id="path5106"
         inkscape:connector-curvature="0" />
      <path
         d="m 91.600168,57.917507 v -0.800984 q 0.692464,0.403076 1.457276,0.403076 0.630452,0 1.002522,-0.304891 0.377238,-0.304891 0.377238,-0.780314 0,-0.356568 -0.155029,-0.640788 -0.155029,-0.28422 -0.692464,-0.837158 -0.573609,-0.594279 -0.764811,-1.007691 -0.191203,-0.413411 -0.191203,-1.111043 v -2.552816 h 0.847493 v 2.552816 q 0,0.485758 0.160197,0.837158 0.160197,0.3514 0.61495,0.806153 0.630452,0.614949 0.83199,1.028361 0.206706,0.413411 0.206706,0.904337 0,0.780314 -0.620117,1.302246 -0.61495,0.516764 -1.617472,0.516764 -0.759644,0 -1.457276,-0.315226 z"
         style="font-style:normal;font-variant:normal;font-weight:normal;font-stretch:normal;font-size:10.58333302px;font-family:'Segoe UI';-inkscape-font-specification:'Segoe UI, Normal';font-variant-ligatures:normal;font-variant-caps:normal;font-variant-numeric:normal;font-feature-settings:normal;text-align:start;writing-mode:lr-tb;text-anchor:start;stroke-width:0.26458332"
         id="path5108"
         inkscape:connector-curvature="0" />
      <path
         d="m 94.829945,60.093085 h -0.54777 q -0.124024,-0.718302 -0.89917,-0.718302 -0.775147,0 -0.89917,0.718302 h -0.54777 q 0.05168,-0.54777 0.449585,-0.888835 0.397908,-0.341064 0.997355,-0.341064 0.599446,0 0.997355,0.341064 0.397908,0.346232 0.449585,0.888835 z"
         style="font-style:normal;font-variant:normal;font-weight:normal;font-stretch:normal;font-size:10.58333302px;font-family:'Segoe UI';-inkscape-font-specification:'Segoe UI, Normal';font-variant-ligatures:normal;font-variant-caps:normal;font-variant-numeric:normal;font-feature-settings:normal;text-align:start;writing-mode:lr-tb;text-anchor:start;stroke-width:0.26458332"
         id="path5110"
         inkscape:connector-curvature="0" />
      <path
         d="m 102.46255,50.501939 h -0.83715 q -0.96119,-1.333252 -3.271122,-1.333252 -2.299601,0 -3.260783,1.333252 h -0.837158 q 1.240234,-1.974039 4.103109,-1.974039 2.862874,0 4.103104,1.974039 z"
         style="font-style:normal;font-variant:normal;font-weight:normal;font-stretch:normal;font-size:10.58333302px;font-family:'Segoe UI';-inkscape-font-specification:'Segoe UI, Normal';font-variant-ligatures:normal;font-variant-caps:normal;font-variant-numeric:normal;font-feature-settings:normal;text-align:start;writing-mode:lr-tb;text-anchor:start;stroke-width:0.26458332"
         id="path5112"
         inkscape:connector-curvature="0" />
      <path
         d="m 100.34899,53.483669 q -0.594281,0 -1.01286,-0.418579 -0.418579,-0.423746 -0.418579,-1.023193 0,-0.594279 0.413411,-1.002523 0.413412,-0.413411 1.007688,-0.413411 0.59945,0 1.01803,0.413411 0.42375,0.413412 0.42375,1.002523 0,0.599447 -0.41858,1.023193 -0.41858,0.418579 -1.01286,0.418579 z m 0,-2.253092 q -0.3359,0 -0.57361,0.237712 -0.237712,0.237711 -0.237712,0.573608 0,0.346232 0.232544,0.594279 0.232548,0.242879 0.568438,0.242879 0.3359,0 0.57878,-0.248047 0.24288,-0.248047 0.24288,-0.589111 0,-0.341064 -0.23771,-0.573608 -0.23772,-0.237712 -0.57361,-0.237712 z"
         style="font-style:normal;font-variant:normal;font-weight:normal;font-stretch:normal;font-size:10.58333302px;font-family:'Segoe UI';-inkscape-font-specification:'Segoe UI, Normal';font-variant-ligatures:normal;font-variant-caps:normal;font-variant-numeric:normal;font-feature-settings:normal;text-align:start;writing-mode:lr-tb;text-anchor:start;stroke-width:0.26458332"
         id="path5114"
         inkscape:connector-curvature="0" />
      <path
         d="m 103.22736,59.803697 h -0.75447 q 1.6123,-1.932699 1.6123,-4.521688 0,-2.60966 -1.62264,-4.573364 h 0.76481 q 1.61231,1.891357 1.61231,4.583699 0,2.682007 -1.61231,4.511353 z"
         style="font-style:normal;font-variant:normal;font-weight:normal;font-stretch:normal;font-size:10.58333302px;font-family:'Segoe UI';-inkscape-font-specification:'Segoe UI, Normal';font-variant-ligatures:normal;font-variant-caps:normal;font-variant-numeric:normal;font-feature-settings:normal;text-align:start;writing-mode:lr-tb;text-anchor:start;stroke-width:0.26458332"
         id="path5116"
         inkscape:connector-curvature="0" />
    </g>
  </g>
</svg>
