<?xml version="1.0" encoding="UTF-8" standalone="no"?>
<!-- Created with Inkscape (http://www.inkscape.org/) -->

<svg
   xmlns:dc="http://purl.org/dc/elements/1.1/"
   xmlns:cc="http://creativecommons.org/ns#"
   xmlns:rdf="http://www.w3.org/1999/02/22-rdf-syntax-ns#"
   xmlns:svg="http://www.w3.org/2000/svg"
   xmlns="http://www.w3.org/2000/svg"
   xmlns:sodipodi="http://sodipodi.sourceforge.net/DTD/sodipodi-0.dtd"
   xmlns:inkscape="http://www.inkscape.org/namespaces/inkscape"
   width="233.55435mm"
   height="182.21854mm"
   viewBox="0 0 233.55435 182.21854"
   version="1.1"
   id="svg8"
   inkscape:version="0.92.4 (5da689c313, 2019-01-14)"
   sodipodi:docname="nginx-icon2.svg">
  <defs
     id="defs2" />
  <sodipodi:namedview
     id="base"
     pagecolor="#ffffff"
     bordercolor="#666666"
     borderopacity="1.0"
     inkscape:pageopacity="0.0"
     inkscape:pageshadow="2"
     inkscape:zoom="0.49497475"
     inkscape:cx="112.71022"
     inkscape:cy="383.05677"
     inkscape:document-units="mm"
     inkscape:current-layer="layer1"
     showgrid="false"
     fit-margin-top="0"
     fit-margin-left="0"
     fit-margin-right="0"
     fit-margin-bottom="0"
     inkscape:window-width="1920"
     inkscape:window-height="1137"
     inkscape:window-x="1912"
     inkscape:window-y="-8"
     inkscape:window-maximized="1" />
  <metadata
     id="metadata5">
    <rdf:RDF>
      <cc:Work
         rdf:about="">
        <dc:format>image/svg+xml</dc:format>
        <dc:type
           rdf:resource="http://purl.org/dc/dcmitype/StillImage" />
        <dc:title></dc:title>
      </cc:Work>
    </rdf:RDF>
  </metadata>
  <g
     inkscape:label="Layer 1"
     inkscape:groupmode="layer"
     id="layer1"
     transform="translate(16.235508,-46.38478)">
    <g
       id="g854"
       transform="matrix(0.26458333,0,0,0.26458333,-16.235508,46.38478)">
      <path
         id="path834"
         d="m 506,688.6 c -11.3,0 -21.7,-4.4 -29.4,-11.5 -8,7.1 -18.1,11 -28.5,11 h -0.5 c -11.2,-0.2 -22.2,-5 -30.2,-13.3 -8.1,-8.2 -12.6,-19.3 -12.5,-30.4 v -4.5 l -11.8,23.8 -5,10.1 c -4.2,8.6 -13,14.1 -22.7,14.1 H 264.9 c -9.1,0 -17.5,-5 -22,-12.8 l -5.1,-9.2 -13.6,-23.9 v 3 c 0,23.8 -19.4,43.2 -43.2,43.2 -11.6,0 -22.4,-4.5 -30.6,-12.7 L 86.5,611.6 V 645 c 0,23.8 -19.4,43.2 -43.2,43.2 C 19.5,688.2 0,668.9 0,645 V 507 c 0,-17.5 10.5,-33.2 26.7,-40 5.3,-2.2 10.8,-3.3 16.5,-3.3 11.6,0 22.4,4.5 30.6,12.7 l 64,64 V 507 c 0,-23.8 19.4,-43.2 43.2,-43.2 23.8,0 43.2,19.4 43.2,43.2 v 3.7 l 13.4,-24.3 4.9,-9.1 c 4.4,-8.1 12.9,-13.3 22.2,-13.3 h 104.7 c 9.7,0 18.4,5.5 22.6,14.1 l 5,10.2 c 0.3,0.4 0.4,0.9 0.6,1.3 l 7.3,17.5 c 0,-11 4.5,-21.9 12.5,-30 8.1,-8.3 19.1,-13.1 30.2,-13.3 h 0.5 c 10.5,0 20.9,4.1 29,11.5 7.6,-6.9 17.8,-11.1 28.9,-11.1 23.8,0 43.2,19.4 43.2,43.2 v 33.5 l 64,-64 c 8.1,-8.1 19.1,-12.7 30.6,-12.7 5.7,0 11.2,1.1 16.5,3.3 4.5,1.8 8.6,4.4 12.1,7.6 7.9,-7.1 18,-10.9 28.7,-10.9 11.5,0 22.3,4.4 30.6,12.6 l 38.6,38.4 38.6,-38.4 c 8.2,-8.1 19.1,-12.6 30.6,-12.6 11.6,0 22.5,4.5 30.6,12.8 16.9,16.9 16.8,44.4 -0.1,61.2 l -38.4,38.2 38.2,38.1 c 16.9,16.9 17,44.3 0.1,61.2 -8.1,8.2 -19.1,12.8 -30.6,12.8 -11.6,0 -22.4,-4.5 -30.6,-12.7 L 770.3,637.5 732,675.6 c -8.1,8.1 -19,12.6 -30.6,12.6 -10.4,0 -20.6,-3.9 -28.5,-10.7 -7.6,6.9 -17.8,11.2 -29,11.2 -23.8,0 -43.2,-19.4 -43.2,-43.2 V 612 l -64,64 c -8.2,8.1 -19,12.6 -30.7,12.6 z M 687.2,598 709.1,576.2 687.2,554.4 Z"
         class="st0"
         inkscape:connector-curvature="0"
         style="fill:#ffffff" />
      <path
         id="path836"
         d="m 181.1,663.1 c -4.7,0 -9.3,-1.8 -12.8,-5.3 L 61.3,550.7 V 645 c 0,10 -8.1,18 -18,18 -9.9,0 -18,-8.1 -18,-18 V 507 c 0,-7.3 4.4,-13.9 11.2,-16.7 6.8,-2.8 14.5,-1.3 19.7,3.9 l 106.9,107 V 507 c 0,-10 8.1,-18 18,-18 10,0 18,8.1 18,18 v 137.9 c 0.1,10 -8,18.2 -18,18.2 m 83.8,-173.9 -5,9.3 -38.4,69.8 -5,8.8 5,8.8 38.4,67.6 5.2,9.2 h 100.6 l 5,-10.2 28.7,-57.9 12.9,-26.2 h -29.1 l -73.4,0.3 c -9.6,-0.2 -18.4,8.6 -18.4,18 0,9.6 8.8,18.2 18.4,18 l 44.3,-0.3 -10.8,21.9 h -57 L 258,576.7 286.5,525.2 h 60.6 l 14.1,29 h 36.4 l -22.9,-55 -5,-10.2 H 264.9 m 183.2,-0.1 c -9.5,0.1 -18,8.8 -17.9,18.3 v 47.2 h 36.2 v -47.2 c 0.1,-9.6 -8.7,-18.5 -18.3,-18.3 m 58,174.5 c -10,0 -18,-8.1 -18,-18 v -138 c 0,-10 8.1,-18 18,-18 10,0 18,8.1 18,18 v 94.3 l 107,-107 c 5.2,-5.2 12.9,-6.7 19.7,-3.9 6.8,2.8 11.2,9.4 11.2,16.7 v 137.9 c 0,10 -8.1,18 -18,18 -10,0 -18,-8.1 -18,-18 V 551 L 518.9,658.1 c -3.4,3.4 -8,5.3 -12.8,5.3 m 290,-87.2 56.2,-56.1 c 7.1,-7.1 7.1,-18.5 0.1,-25.6 -7.1,-7.1 -18.5,-7.1 -25.6,-0.1 l -56.3,56.2 -56.3,-56.2 c -7.1,-7.1 -18.5,-7.1 -25.6,0.1 -7.1,7.1 -7.1,18.5 0,25.6 l 56.2,56.1 -56.1,55.9 c -7.1,7.1 -7.1,18.5 -0.1,25.6 3.4,3.4 8,5.4 12.8,5.3 4.6,0 9.2,-1.8 12.8,-5.3 l 56.2,-56 56.2,56 c 3.4,3.4 8,5.3 12.8,5.3 4.6,0 9.3,-1.8 12.8,-5.3 7.1,-7.1 7.1,-18.5 -0.1,-25.6 z m -348,86.7 c -9.5,-0.1 -18,-8.8 -17.9,-18.3 v -75.7 h 36.2 v 75.7 c 0.1,9.6 -8.7,18.4 -18.3,18.3"
         class="st1"
         inkscape:connector-curvature="0"
         style="fill:#009900" />
      <path
         id="path838"
         d="m 614.1,488.4 c -18.7,-0.2 -36.3,-7.5 -49.4,-20.7 L 338.2,241.3 v 176.4 c 0,38.9 -31.7,70.7 -70.7,70.7 -39,0 -70.7,-31.7 -70.7,-70.7 V 70.7 C 196.8,42 213.9,16.4 240.4,5.4 249,1.8 258.1,0 267.4,0 c 18.9,0 36.7,7.4 50,20.7 L 544,247.1 V 70.7 C 544,31.7 575.7,0 614.6,0 c 38.9,0 70.7,31.7 70.7,70.7 v 347.1 c 0,38.9 -31.7,70.7 -70.7,70.7 h -0.5 z"
         class="st0"
         inkscape:connector-curvature="0"
         style="fill:#ffffff" />
      <path
         id="path840"
         d="m 614.6,463.2 c -11.8,0 -23.5,-4.6 -32.2,-13.3 L 313.1,180.5 v 237.2 c 0,25.2 -20.4,45.5 -45.5,45.5 -25.1,0 -45.5,-20.4 -45.5,-45.5 v -347 c 0,-18.5 11.1,-35 28.1,-42.1 17,-7.1 36.6,-3.2 49.6,9.9 L 569.1,307.9 V 70.7 c 0,-25.2 20.4,-45.5 45.5,-45.5 25.2,0 45.5,20.4 45.5,45.5 v 347.1 c 0,25.1 -20.3,45.4 -45.5,45.4"
         class="st1"
         inkscape:connector-curvature="0"
         style="fill:#009900" />
    </g>
  </g>
  <style
     id="style832"
     type="text/css">
	.st0{fill:#FFFFFF;}
	.st1{fill:#009900;}
</style>
</svg>
