<?xml version="1.0" encoding="UTF-8" standalone="no"?>
<!-- Created with Inkscape (http://www.inkscape.org/) -->

<svg
   xmlns:dc="http://purl.org/dc/elements/1.1/"
   xmlns:cc="http://creativecommons.org/ns#"
   xmlns:rdf="http://www.w3.org/1999/02/22-rdf-syntax-ns#"
   xmlns:svg="http://www.w3.org/2000/svg"
   xmlns="http://www.w3.org/2000/svg"
   xmlns:sodipodi="http://sodipodi.sourceforge.net/DTD/sodipodi-0.dtd"
   xmlns:inkscape="http://www.inkscape.org/namespaces/inkscape"
   width="90.11808mm"
   height="90.123421mm"
   viewBox="0 0 90.11808 90.123421"
   version="1.1"
   id="svg8"
   inkscape:version="0.92.4 (5da689c313, 2019-01-14)"
   sodipodi:docname="postman.svg">
  <defs
     id="defs2">
	
</defs>
  <sodipodi:namedview
     id="base"
     pagecolor="#ffffff"
     bordercolor="#666666"
     borderopacity="1.0"
     inkscape:pageopacity="0.0"
     inkscape:pageshadow="2"
     inkscape:zoom="0.24748737"
     inkscape:cx="-20.121027"
     inkscape:cy="-49.563259"
     inkscape:document-units="mm"
     inkscape:current-layer="Layer_2-2"
     showgrid="false"
     fit-margin-top="1"
     fit-margin-left="1"
     fit-margin-right="1"
     fit-margin-bottom="1"
     inkscape:window-width="1484"
     inkscape:window-height="936"
     inkscape:window-x="3382"
     inkscape:window-y="189"
     inkscape:window-maximized="0" />
  <metadata
     id="metadata5">
    <rdf:RDF>
      <cc:Work
         rdf:about="">
        <dc:format>image/svg+xml</dc:format>
        <dc:type
           rdf:resource="http://purl.org/dc/dcmitype/StillImage" />
        <dc:title></dc:title>
      </cc:Work>
    </rdf:RDF>
  </metadata>
  <g
     inkscape:label="Layer 1"
     inkscape:groupmode="layer"
     id="layer1"
     transform="translate(-51.438411,-89.319516)">
    <g
       id="Layer_2-2"
       transform="matrix(0.26458333,0,0,0.26458333,-328.16069,39.001788)">
		
		
		
		
		
		
		
		
		
		<path
   style="fill:#ff6c37"
   inkscape:connector-curvature="0"
   class="st1"
   d="m 1626.1572,195.34929 c -91.2,-11.8 -174.6,52.7 -186.3,143.9 -11.7,91.2 52.7,174.7 143.9,186.4 91.2,11.7 174.6,-52.7 186.4,-143.9 11.7,-91.2 -52.7,-174.7 -144,-186.4 0.1,0 0.1,0 0,0 z m 34.3,103.8 c -3.1,0.1 -6,1.3 -8.2,3.5 l -61.8,61.8 -13.2,-13.2 c 60.8,-60.7 71.9,-61.3 83.2,-52.1 z m -67.5,67.5 61.6,-61.2 c 3.4,-3.3 8.8,-3.3 12.2,0 1.7,1.7 2.6,4 2.5,6.3 -0.1,2.4 -1.1,4.6 -2.9,6.2 l -65.1,57.4 z m 4.6,9.3 -15.3,3.9 c -0.3,0.2 -0.6,0.2 -0.9,0 -0.2,-0.3 -0.2,-0.7 0,-1 l 9.3,-9.3 z m -39,-6.4 16.3,-16.3 12.3,12.6 -27.9,6 c -0.6,0.1 -1.2,-0.3 -1.3,-0.9 -0.1,-0.4 0,-0.7 0.3,-1 z m -50.5,84.7 c -0.4,-0.1 -0.8,-0.4 -0.9,-0.7 -0.1,-0.4 -0.1,-0.8 0,-1.1 l 13.1,-13.2 17,16.9 z m 33.6,-17.5 v 0 c -1.3,0.7 -2,2.1 -1.7,3.5 l 2.8,12 c 0.2,0.8 -0.2,1.6 -0.8,2 -0.6,0.5 -1.5,0.5 -2,0 l -17,-17.5 52.2,-52.3 25.3,-5.4 12.1,12.1 c -21.6,18 -45.4,33.3 -70.8,45.4 v 0.2 z m 73.4,-47.6 -11.6,-11.6 65.1,-57.3 c 0.6,-0.5 1.2,-1.1 1.7,-1.8 -2.1,18.6 -28.3,45 -55.2,70.7 z m 50.8,-89.7 c -9.7,-10.1 -9.3,-26.1 0.8,-35.8 9.2,-8.8 23.4,-9.4 33.3,-1.4 l -22.4,22.3 c -0.6,0.7 -0.6,1.7 0,2.4 l 17.4,17.3 c -9.8,4.8 -21.6,2.8 -29.2,-5 z m 35.7,0 c -1.2,1.1 -2.4,2.2 -3.8,3.1 l -16.7,-16.7 21.3,-21.3 c 9.2,9.9 8.9,25.3 -0.8,34.9 z"
   id="path871" />

	</g>
  </g>
  <style
     id="style849"
     type="text/css">
	.st0{fill:#FFFFFF;}
	.st1{fill:#FF6C37;}
</style>
</svg>
