<?xml version="1.0" encoding="UTF-8" standalone="no"?>
<svg
   xmlns:dc="http://purl.org/dc/elements/1.1/"
   xmlns:cc="http://creativecommons.org/ns#"
   xmlns:rdf="http://www.w3.org/1999/02/22-rdf-syntax-ns#"
   xmlns:svg="http://www.w3.org/2000/svg"
   xmlns="http://www.w3.org/2000/svg"
   xmlns:sodipodi="http://sodipodi.sourceforge.net/DTD/sodipodi-0.dtd"
   xmlns:inkscape="http://www.inkscape.org/namespaces/inkscape"
   version="1.0"
   width="240.000000pt"
   height="200.000000pt"
   viewBox="0 0 240.000000 200.000000"
   preserveAspectRatio="xMidYMid meet"
   id="svg5577"
   sodipodi:docname="spring-boot.svg"
   inkscape:version="0.92.2 (5c3e80d, 2017-08-06)">
  <defs
     id="defs5581" />
  <sodipodi:namedview
     pagecolor="#ffffff"
     bordercolor="#666666"
     borderopacity="1"
     objecttolerance="10"
     gridtolerance="10"
     guidetolerance="10"
     inkscape:pageopacity="0"
     inkscape:pageshadow="2"
     inkscape:window-width="1920"
     inkscape:window-height="986"
     id="namedview5579"
     showgrid="false"
     inkscape:zoom="0.885"
     inkscape:cx="1.2429379"
     inkscape:cy="133.33333"
     inkscape:window-x="-11"
     inkscape:window-y="-11"
     inkscape:window-maximized="1"
     inkscape:current-layer="g5575" />
  <metadata
     id="metadata5571">
Created by potrace 1.11, written by Peter Selinger 2001-2013
<rdf:RDF>
  <cc:Work
     rdf:about="">
    <dc:format>image/svg+xml</dc:format>
    <dc:type
       rdf:resource="http://purl.org/dc/dcmitype/StillImage" />
  </cc:Work>
</rdf:RDF>
</metadata>
  <g
     transform="matrix(0.1,0,0,-0.1,0,200)"
     id="g5575"
     style="fill:#000000;stroke:none">
    <path
       d="m 761,1906 c -68,-24 -104,-66 -187,-211 -6,-11 -21,-37 -32,-57 -12,-21 -31,-54 -42,-73 -27,-48 -46,-79 -130,-225 -40,-69 -81,-141 -92,-160 -11,-19 -23,-39 -27,-45 -15,-24 -31,-83 -31,-115 0,-32 16,-91 31,-115 4,-5 16,-26 27,-45 11,-19 52,-91 92,-160 84,-146 103,-177 130,-225 11,-19 30,-52 42,-72 11,-21 26,-47 32,-58 62,-109 83,-140 117,-168 21,-19 56,-39 78,-45 54,-17 848,-17 902,0 64,19 112,69 181,190 34,61 74,129 87,152 13,23 32,55 41,71 9,17 31,54 49,83 17,29 31,55 31,57 0,2 22,40 49,84 75,122 111,203 111,251 0,48 -36,129 -111,251 -27,44 -49,82 -49,84 0,2 -14,28 -31,57 -18,29 -40,67 -49,83 -9,17 -28,48 -41,71 -13,23 -53,91 -87,152 -69,121 -117,171 -181,190 -55,17 -863,15 -910,-2 z m 516,-308 c 23,-21 23,-22 23,-298 v -277 l -25,-23 c -35,-33 -90,-33 -116,0 -17,23 -19,46 -19,299 0,268 0,275 22,298 28,30 83,31 115,1 z m -309,-98 c 27,-17 32,-26 32,-57 0,-33 -8,-46 -58,-95 -89,-87 -125,-171 -125,-293 0,-118 29,-192 110,-276 85,-89 170,-124 298,-123 81,1 98,5 159,34 144,70 234,211 236,369 0,98 -48,208 -123,283 -72,71 -82,90 -63,126 8,15 26,34 39,41 23,12 30,11 70,-12 77,-45 157,-153 197,-268 34,-92 34,-257 1,-348 -70,-193 -209,-317 -411,-367 -285,-70 -593,133 -655,431 -28,132 -13,227 57,371 32,65 107,151 160,184 40,24 36,24 76,0 z"
       id="path5573"
       inkscape:connector-curvature="0"
       style="fill:#02ad12;fill-opacity:1" />
  </g>
</svg>
