<?xml version="1.0" encoding="utf-8"?> <!-- Svg Vector Icons : http://www.onlinewebfonts.com/icon --> <!DOCTYPE svg PUBLIC "-//W3C//DTD SVG 1.1//EN" "http://www.w3.org/Graphics/SVG/1.1/DTD/svg11.dtd"> <svg version="1.1" xmlns="http://www.w3.org/2000/svg" xmlns:xlink="http://www.w3.org/1999/xlink" x="0px" y="0px" viewBox="0 0 1000 1000" enable-background="new 0 0 1000 1000" xml:space="preserve"> <metadata> Svg Vector Icons : http://www.onlinewebfonts.com/icon </metadata> <g><g transform="translate(0.000000,511.000000) scale(0.100000,-0.100000)"><path d="M4800.9,4958.3c-109.8-56.2-160.9-114.9-337-398.3c-66.4-107.2-117.5-160.8-150.6-160.8c-25.5,0-130.2,68.9-229.8,153.2c-250.2,209.4-311.5,237.4-490.2,224.7c-109.8-7.7-168.5-28.1-237.4-79.1c-120-91.9-143-137.9-219.6-436.6c-38.3-153.2-81.7-263-107.2-278.3c-33.2-23-97-5.1-280.8,68.9c-301.3,125.1-454.4,132.8-610.2,30.6c-68.9-46-122.5-109.8-155.7-188.9c-45.9-104.7-51.1-148.1-35.7-395.7c12.8-199.2,7.7-288.5-12.8-314c-25.5-30.6-86.8-33.2-314-20.4c-255.3,15.3-298.7,10.2-403.4-35.7c-79.1-33.2-143-86.8-188.9-155.7c-102.1-155.7-94.5-308.9,30.6-610.2c74-183.8,91.9-247.7,68.9-280.8c-15.3-25.5-125.1-68.9-278.3-107.2c-298.7-76.6-344.7-99.6-436.6-219.6c-51.1-68.9-71.5-127.7-79.1-237.4c-12.8-178.7,15.3-240,224.7-490.2c84.2-99.6,153.2-204.2,153.2-229.8c0-33.2-53.6-84.2-158.3-150.6C266.6,470,205.3,418.9,151.7,306.6c-68.9-140.4-68.9-252.8,0-393.2C205.3-198.9,266.6-250,550-426.1c107.2-66.4,160.8-117.5,160.8-150.6c0-25.5-68.9-130.2-153.2-229.8c-194-229.8-229.8-303.8-229.8-449.3c0-270.6,137.9-400.8,518.3-497.9c155.7-38.3,265.5-79.2,280.8-107.2c23-33.2,5.1-97-68.9-280.8c-125.1-303.8-132.8-451.9-30.6-607.6c46-71.5,109.8-122.5,188.9-158.3c104.7-45.9,148.1-51.1,403.4-35.8c227.2,12.8,288.5,10.2,314-20.4c20.4-25.5,25.5-114.9,12.8-314c-15.3-247.7-10.2-291,35.7-395.7c33.2-79.1,86.8-143,155.7-188.9c155.7-102.1,308.9-94.5,610.2,30.6c183.8,74,247.7,91.9,280.8,68.9c25.5-15.3,68.9-125.1,107.2-278.3c76.6-298.7,99.6-344.7,219.6-434c104.7-81.7,288.5-107.2,423.8-63.8c51.1,15.3,178.7,104.7,288.5,194c109.8,91.9,219.6,166,247.7,166c30.6,0,81.7-56.2,148.1-160.8c176.2-283.4,227.2-344.7,339.6-398.3c140.4-68.9,252.8-68.9,393.2,0c112.3,53.6,163.4,114.9,339.6,400.8c66.4,102.1,117.5,158.3,148.1,158.3c28.1,0,137.9-74.1,247.7-166c224.7-186.4,324.2-227.2,500.4-211.9c234.9,23,344.7,158.3,441.7,554c33.2,127.6,71.5,224.7,97,242.5c33.2,20.4,99.6,2.5,280.8-71.5c301.3-125.1,454.4-132.7,610.2-30.6c68.9,45.9,122.6,109.8,155.8,188.9c45.9,104.7,51.1,148.1,35.7,395.7c-12.8,199.1-7.7,288.5,12.8,314c25.5,30.6,86.8,33.2,314.1,20.4c255.3-15.3,298.7-10.2,403.4,35.8c79.1,33.2,143,86.8,188.9,155.7c102.1,155.8,94.5,308.9-30.6,610.2c-74,181.3-91.9,247.7-71.5,280.8c17.9,25.5,114.9,63.8,242.5,97c395.7,97,531.1,206.8,554,441.7c15.3,176.2-25.5,275.8-211.9,500.4c-91.9,109.8-165.9,219.6-165.9,247.7c0,30.6,56.2,81.7,160.8,148.1c283.4,176.1,344.7,227.2,398.3,339.6c68.9,140.4,68.9,252.8,0,393.2C9794.7,418.9,9733.4,470,9450,646.1c-104.7,66.4-160.8,117.5-160.8,148.1c0,28.1,74,137.9,165.9,247.7c89.4,109.8,178.7,237.4,194,288.5c43.4,135.3,17.9,319.1-63.8,423.8c-89.4,120-135.3,143-434,219.6c-153.2,38.3-263,81.7-278.3,107.2c-23,33.2-5.1,97,68.9,280.8c125.1,301.3,132.7,454.4,30.6,610.2c-45.9,68.9-109.8,122.5-188.9,155.7c-104.7,45.9-148.1,51.1-403.4,35.7c-227.2-12.8-288.5-10.2-314.1,20.4c-20.4,25.5-25.5,114.9-12.8,314c15.3,247.6,10.2,291-35.7,395.7c-35.8,79.1-86.8,143-158.3,188.9c-155.7,102.1-303.8,94.5-607.6-30.6c-183.8-74-247.7-91.9-280.8-68.9c-28.1,15.3-68.9,125.1-107.2,280.8c-97,380.4-227.2,518.3-497.9,518.3c-145.5,0-219.6-35.7-449.3-229.8c-99.6-84.2-204.2-153.2-229.8-153.2c-33.2,0-84.2,53.6-150.6,160.8c-176.1,283.4-227.2,344.7-339.6,398.3C5056.2,5027.2,4938.7,5027.2,4800.9,4958.3z M5551.5,3263C6874,3030.7,7923.3,1976.3,8155.6,646.1c61.3-360,38.3-972.7-48.5-1309.7c-303.8-1154-1179.5-2029.7-2333.5-2333.5c-337-86.8-949.7-109.8-1309.7-48.5c-998.3,173.6-1861.2,811.9-2313.1,1708c-143,283.4-252.8,605.1-303.8,896.1c-48.5,291.1-48.5,811.9,0,1102.9c227.2,1302.1,1281.7,2364.2,2581.2,2599C4703.8,3309,5270.6,3311.6,5551.5,3263z"/><path d="M4966.8,2096.3C4795.8,1657.2,4448.5,830,4428.1,809.5c-15.3-17.9-370.2-74-788.9-127.7c-416.2-53.6-755.7-104.7-753.2-114.9c5.1-10.2,250.2-222.1,543.8-469.8c296.2-250.2,538.7-457,543.8-459.6c5.1-5.1-56.2-352.3-132.8-771c-79.1-421.3-143-771-143-778.7c0-10.2,275.7,155.7,612.7,365.1c337,209.4,623,380.4,633.2,380.4c10.2,0,321.7-165.9,694.4-367.7c372.8-201.7,679.1-365.1,684.2-360c5.1,5.1-68.9,319.1-160.8,702.1l-171.1,694.4l112.3,114.9c58.7,61.3,314,303.8,564.2,538.7c247.7,234.9,451.9,434,451.9,441.7c0,7.7-301.3,35.7-668.9,61.3c-370.2,25.5-697,53.6-730.2,61.3c-45.9,12.8-120,150.6-377.9,691.9c-176.2,372.8-329.3,686.8-342.1,697C4989.8,2121.8,4974.5,2114.2,4966.8,2096.3z"/></g></g> </svg>