<?xml version="1.0" encoding="UTF-8" standalone="no"?>
<!-- Created with Inkscape (http://www.inkscape.org/) -->

<svg
   xmlns:i="http://ns.adobe.com/AdobeIllustrator/10.0/"
   xmlns:dc="http://purl.org/dc/elements/1.1/"
   xmlns:cc="http://creativecommons.org/ns#"
   xmlns:rdf="http://www.w3.org/1999/02/22-rdf-syntax-ns#"
   xmlns:svg="http://www.w3.org/2000/svg"
   xmlns="http://www.w3.org/2000/svg"
   xmlns:sodipodi="http://sodipodi.sourceforge.net/DTD/sodipodi-0.dtd"
   xmlns:inkscape="http://www.inkscape.org/namespaces/inkscape"
   width="74.760429mm"
   height="74.760422mm"
   viewBox="0 0 74.760429 74.760422"
   version="1.1"
   id="svg8"
   inkscape:version="0.92.4 (5da689c313, 2019-01-14)"
   sodipodi:docname="drawing.svg">
  <defs
     id="defs2" />
  <sodipodi:namedview
     id="base"
     pagecolor="#ffffff"
     bordercolor="#666666"
     borderopacity="1.0"
     inkscape:pageopacity="0.0"
     inkscape:pageshadow="2"
     inkscape:zoom="0.35"
     inkscape:cx="-373.00616"
     inkscape:cy="106.99383"
     inkscape:document-units="mm"
     inkscape:current-layer="layer1"
     showgrid="false"
     fit-margin-left="1"
     fit-margin-top="1"
     fit-margin-bottom="1"
     fit-margin-right="1"
     inkscape:window-width="1242"
     inkscape:window-height="850"
     inkscape:window-x="2386"
     inkscape:window-y="53"
     inkscape:window-maximized="0" />
  <metadata
     id="metadata5">
    <rdf:RDF>
      <cc:Work
         rdf:about="">
        <dc:format>image/svg+xml</dc:format>
        <dc:type
           rdf:resource="http://purl.org/dc/dcmitype/StillImage" />
        <dc:title></dc:title>
      </cc:Work>
    </rdf:RDF>
  </metadata>
  <g
     inkscape:label="Layer 1"
     inkscape:groupmode="layer"
     id="layer1"
     transform="translate(-69.209072,-102.38169)">
    <g
       id="layer1-2"
       inkscape:label="Layer 1"
       transform="matrix(0.26458333,0,0,0.26458333,66.90178,100.07441)">
      <g
         transform="matrix(3.031339,0,0,2.932114,12.5,12.4941)"
         id="g67">
        <circle
           style="fill:#ff6309"
           id="circle69"
           r="9.1239996"
           cy="46.903999"
           cx="9.1239996"
           i:knockout="Off" />
        <circle
           style="fill:#ffb515"
           id="circle71"
           r="9.1239996"
           cy="84.667"
           cx="74.547997"
           i:knockout="Off" />
        <path
           style="fill:#ff6309"
           id="path73"
           d="m 52.739,24.327 c 11.361,0 20.787,8.436 22.348,19.373 H 90.719 C 90.009,35.106 86.446,27.096 80.489,20.779 76.674,22.722 71.983,22.759 67.998,20.459 64.01,18.156 61.696,14.072 61.474,9.792 58.643,9.132 55.718,8.79 52.739,8.79 c -5.704,0 -11.216,1.245 -16.229,3.606 l 7.826,13.555 c 2.599,-1.046 5.435,-1.624 8.403,-1.624 z"
           i:knockout="Off"
           inkscape:connector-curvature="0" />
        <path
           style="fill:#c90016"
           id="path75"
           d="M 75.088,50.098 C 73.531,61.039 64.103,69.48 52.739,69.48 c -2.97,0 -5.807,-0.578 -8.406,-1.626 L 36.506,81.41 c 5.012,2.362 10.526,3.608 16.232,3.608 2.981,0 5.91,-0.344 8.742,-1.004 0.218,-4.285 2.533,-8.376 6.524,-10.68 3.986,-2.302 8.679,-2.265 12.495,-0.318 5.952,-6.318 9.511,-14.327 10.219,-22.918 z"
           i:knockout="Off"
           inkscape:connector-curvature="0" />
        <path
           style="fill:#ffb515"
           id="path77"
           d="m 30.163,46.904 c 0,-7.193 3.381,-13.61 8.636,-17.747 L 30.975,15.604 c -1.835,1.282 -3.571,2.733 -5.188,4.349 -4.528,4.528 -7.775,9.995 -9.562,15.962 3.6,2.332 5.984,6.38 5.984,10.989 0,4.608 -2.384,8.657 -5.984,10.988 1.787,5.967 5.034,11.434 9.562,15.962 1.616,1.616 3.35,3.065 5.184,4.348 L 38.796,64.648 C 33.542,60.511 30.163,54.094 30.163,46.904 Z"
           i:knockout="Off"
           inkscape:connector-curvature="0" />
        <circle
           style="fill:#c90016"
           id="circle79"
           r="9.1239996"
           cy="9.1260004"
           cx="74.540001"
           i:knockout="Off" />
      </g>
    </g>
  </g>
</svg>
