<?xml version="1.0" standalone="no"?>
<!DOCTYPE svg PUBLIC "-//W3C//DTD SVG 20010904//EN"
 "http://www.w3.org/TR/2001/REC-SVG-20010904/DTD/svg10.dtd">
<svg version="1.0" xmlns="http://www.w3.org/2000/svg"
 width="2255.000000pt" height="2255.000000pt" viewBox="0 0 2255.000000 2255.000000"
 preserveAspectRatio="xMidYMid meet">
<metadata>
Created by potrace 1.11, written by Peter Selinger 2001-2013
</metadata>
<g transform="translate(0.000000,2255.000000) scale(0.100000,-0.100000)"
fill="#000000" stroke="none">
<path d="M10855 22534 c-27 -2 -129 -8 -225 -14 -1824 -113 -3636 -784 -5115
-1894 -1718 -1290 -2945 -3085 -3514 -5142 -164 -592 -262 -1157 -323 -1874
-18 -201 -17 -1161 0 -1375 72 -882 216 -1601 478 -2382 226 -676 571 -1408
949 -2013 566 -907 1287 -1722 2135 -2411 743 -605 1660 -1134 2582 -1490
1363 -526 2860 -733 4333 -598 1523 139 2953 625 4256 1445 635 400 1199 858
1754 1425 1099 1123 1913 2519 2351 4034 179 618 290 1225 350 1915 21 248 30
997 15 1270 -75 1345 -402 2588 -995 3780 -1134 2280 -3154 4036 -5566 4839
-755 252 -1488 399 -2323 467 -178 14 -1009 28 -1142 18z m-2673 -14583 c186
-48 354 -159 471 -314 67 -88 120 -191 142 -277 23 -89 17 -237 -13 -303 -31
-70 -111 -149 -185 -183 -59 -27 -69 -29 -192 -28 -114 0 -139 3 -203 26 -216
77 -428 270 -516 470 -30 67 -56 183 -56 245 0 106 52 230 122 289 39 32 117
72 165 83 67 16 186 12 265 -8z m-1663 -1391 c328 -92 692 -418 729 -652 21
-135 -43 -206 -192 -216 -283 -17 -727 269 -878 566 -36 72 -42 91 -42 150 -1
55 3 73 22 100 25 34 66 60 117 73 45 12 161 2 244 -21z"/>
<path d="M7933 7886 c-164 -52 -254 -211 -223 -394 10 -62 70 -212 84 -212 12
0 666 452 666 460 0 27 -170 120 -265 145 -71 18 -204 19 -262 1z"/>
<path d="M6337 6529 c-95 -15 -145 -83 -134 -181 8 -66 68 -175 137 -250 l58
-63 184 180 c100 99 184 183 186 187 5 12 -148 85 -223 106 -87 25 -146 31
-208 21z"/>
<path d="M10035 2555 c-2496 -73 -4459 -265 -5780 -566 -493 -113 -785 -234
-884 -367 -31 -41 -35 -53 -35 -107 0 -54 4 -66 35 -107 144 -193 685 -358
1753 -533 913 -149 1945 -256 3156 -324 195 -12 434 -25 530 -31 176 -10 395
-19 1050 -42 216 -8 745 -13 1350 -13 605 0 1134 5 1350 13 655 23 874 32
1050 42 96 6 335 19 530 31 818 46 1600 114 2245 195 435 54 555 71 911 129
1068 175 1609 340 1753 533 31 41 35 53 35 107 0 54 -4 66 -35 107 -127 170
-549 314 -1374 467 -515 96 -1068 173 -1795 251 -1694 180 -4050 267 -5845
215z"/>
</g>
</svg>
