<?xml version="1.0" standalone="no"?>
<!DOCTYPE svg PUBLIC "-//W3C//DTD SVG 20010904//EN"
 "http://www.w3.org/TR/2001/REC-SVG-20010904/DTD/svg10.dtd">
<svg version="1.0" xmlns="http://www.w3.org/2000/svg"
 width="1926.000000pt" height="1926.000000pt" viewBox="0 0 1926.000000 1926.000000"
 preserveAspectRatio="xMidYMid meet">
<metadata>
Created by potrace 1.11, written by Peter Selinger 2001-2013
</metadata>
<g transform="translate(0.000000,1926.000000) scale(0.100000,-0.100000)"
fill="#000000" stroke="none">
<path d="M9360 19234 c-1412 -49 -2699 -365 -3925 -963 -813 -397 -1511 -864
-2200 -1474 -192 -169 -574 -550 -741 -737 -1066 -1193 -1794 -2555 -2179
-4072 -297 -1175 -370 -2392 -215 -3613 163 -1280 604 -2553 1273 -3675 786
-1319 1876 -2429 3193 -3253 415 -259 962 -538 1429 -729 1477 -604 3081 -829
4680 -657 1540 165 3002 696 4300 1562 899 600 1703 1361 2355 2232 364 486
640 932 907 1469 320 639 543 1240 718 1928 197 778 295 1569 295 2372 -1
2228 -761 4358 -2169 6081 -360 441 -809 897 -1251 1271 -735 622 -1593 1146
-2490 1521 -969 405 -1981 643 -3050 717 -213 15 -748 26 -930 20z m745 -803
c83 -11 245 -38 360 -60 116 -22 255 -47 310 -57 383 -64 680 -311 801 -667
45 -132 150 -647 198 -972 73 -493 91 -757 91 -1330 0 -483 -6 -617 -41 -950
-259 -2454 -1521 -4681 -3486 -6153 -1507 -1129 -3341 -1742 -5213 -1742 -307
0 -504 20 -885 91 -91 17 -218 39 -284 50 -250 41 -426 127 -587 288 -157 158
-219 282 -300 606 -275 1100 -340 2055 -213 3140 304 2614 1797 4984 4039
6410 861 548 1855 959 2830 1170 674 146 1250 206 1900 200 264 -3 360 -7 480
-24z m-3529 -13782 c350 -108 620 -446 601 -755 -6 -112 -41 -187 -118 -258
-84 -79 -145 -100 -284 -100 -122 -1 -206 19 -320 76 -126 63 -265 185 -344
301 -149 219 -166 469 -42 625 103 128 307 173 507 111z m-1712 -1379 c175
-44 382 -167 532 -315 154 -152 231 -295 222 -409 -9 -108 -83 -161 -223 -160
-272 2 -655 237 -831 511 -52 79 -74 145 -74 217 0 78 25 121 90 154 58 29
175 30 284 2z"/>
</g>
</svg>
